# xmcd
#
# Track frame offsets: 
#        150
#        6528
#        19433
#        37408
#        51343
#        66637
#        82737
#        96860
#        116245
#        126270
#        143985
#        160248
#        187165
#
# Disc length: 3036 seconds
#
# Revision: 2
# Processed by: cddbd v1.5.2PL0 Copyright (c) Steve Scherf et al.
# Submitted via: ExactAudioCopy v0.99pb4
#
DISCID=cb0bda0d
DTITLE=Soundtracks - BeWitched
DYEAR=1999
DGENRE=Soundtrack
TTITLE0=Let's Go
TTITLE1=C'est LaVie
TTITLE2=Rev It Up
TTITLE3=To You I Belong
TTITLE4=Rollercoaster
TTITLE5=Blame It On The Weatherman
TTITLE6=We Four Girls
TTITLE7=Castles In The Air
TTITLE8=Freak Out 
TTITLE9=Like The Rose
TTITLE10=Never Giving Up
TTITLE11=Oh, Mister Postman
TTITLE12=DATA - B*Witched
EXTD=
EXTT0=
EXTT1=
EXTT2=
EXTT3=
EXTT4=
EXTT5=
EXTT6=
EXTT7=
EXTT8=
EXTT9=
EXTT10=
EXTT11=
EXTT12=
PLAYORDER=
